<?xml version="1.0" encoding="utf-8"?>
<!-- Generator: Adobe Illustrator 16.0.0, SVG Export Plug-In . SVG Version: 6.00 Build 0)  -->
<!DOCTYPE svg PUBLIC "-//W3C//DTD SVG 1.1//EN" "http://www.w3.org/Graphics/SVG/1.1/DTD/svg11.dtd">
<svg version="1.1" id="Calque_1" xmlns="http://www.w3.org/2000/svg" xmlns:xlink="http://www.w3.org/1999/xlink" x="0px" y="0px"
	 width="143px" height="134px" viewBox="0 0 143 134" enable-background="new 0 0 143 134" xml:space="preserve">
<g>
	<rect x="39.588" y="54.255" fill="#4DDB80" width="8.25" height="8.249"/>
	<polygon fill="#4DDB80" points="39.576,29.529 47.822,29.529 47.822,13.04 97.311,13.04 97.311,4.791 47.818,4.791 47.818,13.032 
		39.572,13.032 39.572,29.516 31.328,29.516 31.328,54.261 39.576,54.261 	"/>
	<rect x="55.895" y="32.496" fill="#4DDB80" width="8.25" height="16.496"/>
	<rect x="80.641" y="32.496" fill="#4DDB80" width="8.248" height="16.496"/>
	<polygon fill="#4DDB80" points="14.943,95.372 23.115,95.372 23.115,87.212 31.266,87.212 31.266,79.051 47.891,79.051 
		47.891,70.729 64.268,70.729 64.268,78.896 72.447,78.896 72.447,70.729 97.178,70.729 97.178,87.345 105.512,87.345 
		105.512,78.897 113.684,78.897 113.684,70.717 105.512,70.717 105.506,70.717 97.355,70.717 97.355,62.504 105.559,62.504 
		105.559,54.255 97.309,54.255 97.309,62.48 47.865,62.48 47.865,70.717 31.264,70.717 31.264,79.031 23.084,79.031 23.084,87.192 
		14.936,87.192 14.936,95.372 6.611,95.372 6.611,120.296 14.928,120.296 14.928,128.458 105.529,128.458 105.529,120.278 
		14.943,120.278 	"/>
	<rect x="105.559" y="112.3" fill="#4DDB80" width="8.178" height="8.181"/>
	<rect x="55.973" y="78.906" fill="#4DDB80" width="8.18" height="8.181"/>
	<rect x="39.383" y="87.39" fill="#4DDB80" width="8.18" height="8.18"/>
	<rect x="47.408" y="95.722" fill="#4DDB80" width="41.783" height="8.181"/>
	<rect x="89.307" y="87.543" fill="#4DDB80" width="8.182" height="8.179"/>
	<rect x="113.678" y="78.906" fill="#4DDB80" width="8.18" height="8.18"/>
	<rect x="121.871" y="87.055" fill="#4DDB80" width="8.18" height="8.18"/>
	<polygon fill="#4DDB80" points="138.229,95.248 130.051,95.248 130.051,120.467 121.918,120.467 121.918,95.248 113.74,95.248 
		113.74,120.48 121.908,120.48 121.908,128.648 130.09,128.648 130.09,120.479 138.229,120.479 	"/>
	<polygon fill="#4DDB80" points="105.57,54.261 113.818,54.261 113.818,29.516 105.574,29.516 105.574,13.032 97.324,13.032 
		97.324,29.529 105.57,29.529 	"/>
</g>
</svg>
