<?xml version="1.0" encoding="utf-8"?>
<!-- Generator: Adobe Illustrator 16.0.0, SVG Export Plug-In . SVG Version: 6.00 Build 0)  -->
<!DOCTYPE svg PUBLIC "-//W3C//DTD SVG 1.1//EN" "http://www.w3.org/Graphics/SVG/1.1/DTD/svg11.dtd">
<svg version="1.1" id="Calque_1" xmlns="http://www.w3.org/2000/svg" xmlns:xlink="http://www.w3.org/1999/xlink" x="0px" y="0px"
	 width="442.667px" height="133px" viewBox="0 0 442.667 133" enable-background="new 0 0 442.667 133" xml:space="preserve">
<g>
	<path fill="#F54F03" d="M208.489,123.986l-0.308-1.977c0.461-0.072,46.675-7.227,96.864-12.007
		c67.527-6.432,109.717-5.726,125.4,2.101l-0.893,1.789C392.855,95.582,210.329,123.699,208.489,123.986z"/>
</g>
<path fill="#F54F03" d="M42.451,20.167c-0.355-0.713-0.869-1.247-1.538-1.602c-0.669-0.356-1.487-0.534-2.455-0.534
	c-0.627,0-1.221,0.085-1.78,0.254s-1.06,0.423-1.501,0.762c-0.441,0.339-0.831,0.737-1.169,1.196h-0.178l-0.305-1.908h-3.432v10.683
	h-0.789c-0.239,0-0.438-0.084-0.598-0.255c-0.162-0.168-0.242-0.396-0.242-0.686v-5.724c0-1.017-0.268-1.837-0.802-2.467
	c-0.534-0.625-1.263-1.092-2.187-1.4c-0.923-0.304-2.006-0.455-3.243-0.455c-1.322,0-2.45,0.16-3.382,0.482
	c-0.933,0.32-1.65,0.78-2.149,1.373c-0.501,0.593-0.75,1.289-0.75,2.087c0,0.103,0,0.181,0,0.242c0,0.059,0.009,0.131,0.026,0.217
	h4.069v-0.231c0-0.272,0.084-0.501,0.255-0.698c0.169-0.196,0.419-0.346,0.75-0.444c0.331-0.103,0.716-0.154,1.157-0.154
	c0.492,0,0.886,0.073,1.183,0.215c0.296,0.147,0.522,0.349,0.675,0.611c0.153,0.263,0.228,0.59,0.228,0.978v0.842
	c-1.356,0-2.582,0.067-3.675,0.203c-1.094,0.137-2.027,0.376-2.798,0.724c-0.771,0.348-1.359,0.826-1.766,1.438
	c-0.408,0.611-0.611,1.401-0.611,2.367c0,0.746,0.127,1.365,0.381,1.856c0.255,0.491,0.598,0.876,1.03,1.157
	c0.433,0.28,0.917,0.473,1.449,0.584c0.535,0.11,1.083,0.166,1.642,0.166c0.728,0,1.376-0.072,1.945-0.216
	c0.567-0.146,1.067-0.353,1.5-0.625c0.433-0.269,0.81-0.576,1.131-0.916h0.178c0.103,0.357,0.294,0.667,0.572,0.93
	c0.279,0.263,0.636,0.464,1.069,0.61c0.432,0.144,0.937,0.216,1.512,0.216c0.56,0,1.04-0.056,1.438-0.166
	c0.357-0.099,0.615-0.186,0.803-0.263v0.396h4.169v-8.107c0-0.507,0.11-0.952,0.332-1.335c0.219-0.38,0.517-0.687,0.89-0.914
	c0.373-0.229,0.805-0.342,1.297-0.342c0.322,0,0.61,0.04,0.864,0.125c0.254,0.085,0.465,0.222,0.636,0.406
	c0.169,0.188,0.301,0.413,0.394,0.675c0.093,0.264,0.14,0.583,0.14,0.954v8.54h4.171v-9.124
	C42.985,21.786,42.807,20.88,42.451,20.167z M24.291,26.729c0,0.354-0.072,0.687-0.216,0.991c-0.144,0.304-0.34,0.564-0.585,0.774
	c-0.246,0.214-0.539,0.381-0.877,0.498c-0.34,0.119-0.713,0.177-1.121,0.177c-0.372,0-0.695-0.046-0.967-0.139
	c-0.271-0.094-0.486-0.246-0.648-0.457c-0.161-0.212-0.241-0.48-0.241-0.803c0-0.439,0.187-0.804,0.56-1.094
	c0.373-0.286,0.906-0.499,1.602-0.633c0.695-0.137,1.526-0.205,2.492-0.205V26.729z"/>
<g>
	<path fill="#1A0A45" d="M56.06,34.039l6.06-20.58h3.3l6.06,20.58h-2.79l-1.56-5.43h-6.84l-1.53,5.43H56.06z M60.89,26.329h5.64
		l-1.86-6.63c-0.04-0.2-0.1-0.435-0.18-0.705c-0.081-0.27-0.161-0.565-0.24-0.885c-0.08-0.319-0.16-0.64-0.24-0.96
		c-0.08-0.319-0.15-0.61-0.21-0.87h-0.18c-0.06,0.32-0.146,0.69-0.255,1.11c-0.11,0.42-0.221,0.835-0.33,1.245
		c-0.11,0.41-0.206,0.765-0.285,1.065L60.89,26.329z"/>
	<path fill="#1A0A45" d="M73.279,34.039v-15.78h1.92l0.21,2.16h0.18c0.3-0.6,0.65-1.084,1.05-1.455c0.4-0.37,0.845-0.64,1.335-0.81
		s1.005-0.255,1.545-0.255c0.78,0,1.45,0.14,2.01,0.42c0.56,0.281,0.99,0.74,1.29,1.38s0.45,1.5,0.45,2.58v11.76h-2.4v-11.25
		c0-0.46-0.045-0.855-0.135-1.185s-0.22-0.61-0.39-0.84s-0.39-0.405-0.66-0.525c-0.27-0.12-0.596-0.18-0.975-0.18
		c-0.56,0-1.076,0.175-1.545,0.525c-0.47,0.35-0.84,0.87-1.11,1.56s-0.405,1.555-0.405,2.595v9.3H73.279z"/>
	<path fill="#1A0A45" d="M86.539,34.039v-15.78h1.92l0.21,2.16h0.18c0.3-0.6,0.65-1.084,1.05-1.455c0.4-0.37,0.845-0.64,1.335-0.81
		s1.005-0.255,1.545-0.255c0.78,0,1.45,0.14,2.01,0.42c0.56,0.281,0.99,0.74,1.29,1.38s0.45,1.5,0.45,2.58v11.76h-2.4v-11.25
		c0-0.46-0.045-0.855-0.135-1.185s-0.22-0.61-0.39-0.84s-0.39-0.405-0.66-0.525c-0.27-0.12-0.596-0.18-0.975-0.18
		c-0.56,0-1.076,0.175-1.545,0.525c-0.47,0.35-0.84,0.87-1.11,1.56s-0.405,1.555-0.405,2.595v9.3H86.539z"/>
	<path fill="#1A0A45" d="M103.009,34.399c-0.54,0-1.055-0.085-1.545-0.255c-0.49-0.169-0.915-0.425-1.275-0.765
		c-0.36-0.34-0.641-0.78-0.84-1.32s-0.3-1.19-0.3-1.95c0-0.84,0.155-1.59,0.465-2.25c0.31-0.66,0.79-1.22,1.44-1.68
		c0.649-0.46,1.485-0.805,2.505-1.035c1.02-0.229,2.229-0.345,3.63-0.345v-2.25c0-0.56-0.08-1.035-0.24-1.425s-0.425-0.69-0.795-0.9
		s-0.865-0.315-1.485-0.315c-0.72,0-1.271,0.13-1.65,0.39c-0.38,0.26-0.635,0.596-0.765,1.005c-0.13,0.41-0.195,0.875-0.195,1.395
		v0.27h-2.28c-0.02-0.08-0.03-0.17-0.03-0.27s0-0.21,0-0.33c0-1.08,0.22-1.95,0.66-2.61c0.439-0.66,1.044-1.135,1.815-1.425
		c0.77-0.29,1.635-0.435,2.595-0.435c0.98,0,1.82,0.15,2.52,0.45c0.7,0.3,1.245,0.785,1.635,1.455
		c0.39,0.67,0.585,1.575,0.585,2.715v8.79c0,0.36,0.07,0.62,0.21,0.78c0.14,0.161,0.33,0.24,0.57,0.24h0.99v1.59
		c-0.26,0.12-0.555,0.225-0.885,0.315c-0.33,0.09-0.675,0.135-1.035,0.135c-0.48,0-0.866-0.101-1.155-0.3
		c-0.29-0.2-0.505-0.475-0.645-0.825c-0.14-0.35-0.23-0.735-0.27-1.155h-0.18c-0.24,0.44-0.555,0.835-0.945,1.185
		c-0.39,0.35-0.84,0.625-1.35,0.825C104.254,34.299,103.669,34.399,103.009,34.399z M103.729,32.359c0.4,0,0.799-0.09,1.2-0.27
		c0.4-0.18,0.76-0.439,1.08-0.78c0.32-0.34,0.58-0.77,0.78-1.29c0.2-0.52,0.3-1.11,0.3-1.77v-1.74c-1.38,0-2.475,0.135-3.285,0.405
		s-1.39,0.65-1.74,1.14c-0.35,0.49-0.525,1.085-0.525,1.785c0,0.561,0.084,1.03,0.255,1.41c0.169,0.38,0.42,0.66,0.75,0.84
		C102.874,32.269,103.269,32.359,103.729,32.359z"/>
	<path fill="#1A0A45" d="M118.969,34.399c-0.9,0-1.66-0.23-2.28-0.69c-0.62-0.46-1.09-1.05-1.41-1.77h-0.15l-0.21,2.1h-1.89v-21.69
		h2.37v7.74h0.18c0.22-0.5,0.5-0.91,0.84-1.23c0.34-0.319,0.73-0.56,1.17-0.72c0.439-0.16,0.919-0.24,1.44-0.24
		c1,0,1.84,0.28,2.52,0.84c0.68,0.56,1.2,1.435,1.56,2.625s0.54,2.755,0.54,4.695c0,2.021-0.18,3.64-0.54,4.86
		c-0.36,1.22-0.885,2.105-1.575,2.655S119.989,34.399,118.969,34.399z M118.339,32.269c0.66,0,1.195-0.195,1.605-0.585
		c0.41-0.39,0.715-1,0.915-1.83c0.2-0.83,0.3-1.905,0.3-3.225v-0.9c0-1.34-0.1-2.425-0.3-3.255c-0.2-0.83-0.505-1.44-0.915-1.83
		c-0.41-0.39-0.945-0.585-1.605-0.585c-0.44,0-0.84,0.11-1.2,0.33c-0.36,0.22-0.67,0.555-0.93,1.005
		c-0.26,0.45-0.46,1.035-0.6,1.755c-0.14,0.72-0.21,1.59-0.21,2.61v0.84c0,1.22,0.1,2.25,0.3,3.09c0.2,0.84,0.515,1.48,0.945,1.92
		C117.074,32.049,117.639,32.269,118.339,32.269z"/>
	<path fill="#1A0A45" d="M131.449,34.399c-1.3,0-2.37-0.285-3.21-0.855c-0.84-0.57-1.455-1.465-1.845-2.685
		c-0.39-1.22-0.585-2.79-0.585-4.71c0-1.98,0.205-3.575,0.615-4.785c0.41-1.21,1.045-2.09,1.905-2.64
		c0.859-0.55,1.95-0.825,3.27-0.825c1.16,0,2.13,0.24,2.91,0.72c0.78,0.48,1.365,1.265,1.755,2.355
		c0.39,1.09,0.585,2.545,0.585,4.365v1.35h-8.55c0,1.32,0.1,2.4,0.3,3.24c0.2,0.84,0.53,1.46,0.99,1.86c0.46,0.4,1.08,0.6,1.86,0.6
		c0.459,0,0.87-0.075,1.23-0.225c0.36-0.15,0.669-0.375,0.93-0.675c0.26-0.3,0.46-0.685,0.6-1.155c0.14-0.47,0.22-1.024,0.24-1.665
		h2.34c-0.02,0.92-0.15,1.735-0.39,2.445c-0.24,0.71-0.585,1.31-1.035,1.8c-0.45,0.49-1.005,0.86-1.665,1.11
		C133.039,34.274,132.289,34.399,131.449,34.399z M128.298,24.979h6.09c0-0.9-0.06-1.669-0.18-2.31
		c-0.12-0.64-0.295-1.165-0.525-1.575c-0.23-0.41-0.525-0.71-0.885-0.9c-0.36-0.189-0.79-0.285-1.29-0.285
		c-0.76,0-1.37,0.2-1.83,0.6c-0.46,0.4-0.8,0.98-1.02,1.74C128.438,23.009,128.318,23.919,128.298,24.979z"/>
	<path fill="#1A0A45" d="M139.638,34.039v-21.69h2.37v21.69H139.638z"/>
	<path fill="#1A0A45" d="M145.428,34.039v-21.69h2.37v21.69H145.428z"/>
	<path fill="#1A0A45" d="M156.229,34.399c-1.3,0-2.37-0.285-3.21-0.855c-0.84-0.57-1.455-1.465-1.845-2.685
		c-0.39-1.22-0.585-2.79-0.585-4.71c0-1.98,0.205-3.575,0.615-4.785c0.41-1.21,1.045-2.09,1.905-2.64
		c0.859-0.55,1.95-0.825,3.27-0.825c1.16,0,2.13,0.24,2.91,0.72c0.78,0.48,1.365,1.265,1.755,2.355
		c0.39,1.09,0.585,2.545,0.585,4.365v1.35h-8.55c0,1.32,0.1,2.4,0.3,3.24c0.2,0.84,0.53,1.46,0.99,1.86c0.46,0.4,1.08,0.6,1.86,0.6
		c0.459,0,0.87-0.075,1.23-0.225c0.36-0.15,0.669-0.375,0.93-0.675c0.26-0.3,0.46-0.685,0.6-1.155c0.14-0.47,0.22-1.024,0.24-1.665
		h2.34c-0.02,0.92-0.15,1.735-0.39,2.445c-0.24,0.71-0.585,1.31-1.035,1.8c-0.45,0.49-1.005,0.86-1.665,1.11
		C157.818,34.274,157.068,34.399,156.229,34.399z M153.078,24.979h6.09c0-0.9-0.06-1.669-0.18-2.31
		c-0.12-0.64-0.295-1.165-0.525-1.575c-0.23-0.41-0.525-0.71-0.885-0.9c-0.36-0.189-0.79-0.285-1.29-0.285
		c-0.76,0-1.37,0.2-1.83,0.6c-0.46,0.4-0.8,0.98-1.02,1.74C153.218,23.009,153.098,23.919,153.078,24.979z"/>
	<path fill="#1A0A45" d="M169.458,34.039v-20.58h2.52l7.11,13.14c0.06,0.12,0.145,0.29,0.255,0.51c0.11,0.221,0.215,0.44,0.315,0.66
		c0.1,0.22,0.18,0.42,0.24,0.6h0.12c0-0.32,0-0.65,0-0.99c0-0.34,0-0.62,0-0.84v-13.08h2.55v20.58h-2.43l-7.2-13.35
		c-0.08-0.2-0.206-0.48-0.375-0.84c-0.17-0.36-0.325-0.7-0.465-1.02h-0.12c0.02,0.3,0.03,0.63,0.03,0.99c0,0.36,0,0.68,0,0.96v13.26
		H169.458z"/>
	<path fill="#1A0A45" d="M186.318,15.169v-2.82h2.37v2.82H186.318z M186.318,34.039v-15.78h2.37v15.78H186.318z"/>
	<path fill="#1A0A45" d="M196.848,34.399c-1.241,0-2.261-0.295-3.06-0.885c-0.8-0.59-1.391-1.495-1.77-2.715
		c-0.38-1.219-0.57-2.77-0.57-4.65c0-1.959,0.205-3.544,0.615-4.755c0.41-1.21,1.02-2.095,1.83-2.655s1.825-0.84,3.045-0.84
		c0.919,0,1.69,0.13,2.31,0.39c0.62,0.26,1.125,0.65,1.515,1.17c0.39,0.521,0.669,1.175,0.84,1.965
		c0.169,0.791,0.255,1.695,0.255,2.715h-2.37c0-0.98-0.08-1.785-0.24-2.415c-0.161-0.63-0.425-1.09-0.795-1.38
		c-0.371-0.29-0.885-0.435-1.545-0.435c-0.6,0-1.125,0.175-1.575,0.525c-0.45,0.35-0.795,0.94-1.035,1.77
		c-0.24,0.83-0.36,1.975-0.36,3.435v1.08c0,1.26,0.105,2.31,0.315,3.15s0.535,1.47,0.975,1.89c0.439,0.42,0.99,0.63,1.65,0.63
		s1.185-0.155,1.575-0.465c0.39-0.31,0.665-0.78,0.825-1.41s0.24-1.415,0.24-2.355h2.34c0,0.84-0.085,1.635-0.255,2.385
		c-0.17,0.75-0.445,1.415-0.825,1.995s-0.89,1.035-1.53,1.365C198.607,34.234,197.808,34.399,196.848,34.399z"/>
	<path fill="#1A0A45" d="M207.198,34.039l-4.05-15.78h2.52l2.07,8.91c0.08,0.26,0.165,0.61,0.255,1.05s0.18,0.91,0.27,1.41
		c0.09,0.5,0.175,0.95,0.255,1.35h0.15c0.06-0.24,0.13-0.595,0.21-1.065c0.08-0.47,0.169-0.955,0.27-1.455
		c0.1-0.5,0.189-0.93,0.27-1.29l2.1-8.91h2.37l-4.02,15.78H207.198z"/>
	<path fill="#1A0A45" d="M220.818,34.399c-1.3,0-2.37-0.285-3.21-0.855c-0.84-0.57-1.455-1.465-1.845-2.685
		c-0.39-1.22-0.585-2.79-0.585-4.71c0-1.98,0.205-3.575,0.615-4.785c0.41-1.21,1.045-2.09,1.905-2.64
		c0.859-0.55,1.95-0.825,3.27-0.825c1.16,0,2.13,0.24,2.91,0.72c0.78,0.48,1.365,1.265,1.755,2.355
		c0.39,1.09,0.585,2.545,0.585,4.365v1.35h-8.55c0,1.32,0.1,2.4,0.3,3.24c0.2,0.84,0.53,1.46,0.99,1.86c0.46,0.4,1.08,0.6,1.86,0.6
		c0.459,0,0.87-0.075,1.23-0.225c0.36-0.15,0.669-0.375,0.93-0.675c0.26-0.3,0.46-0.685,0.6-1.155c0.14-0.47,0.22-1.024,0.24-1.665
		h2.34c-0.02,0.92-0.15,1.735-0.39,2.445c-0.24,0.71-0.585,1.31-1.035,1.8c-0.45,0.49-1.005,0.86-1.665,1.11
		C222.408,34.274,221.658,34.399,220.818,34.399z M217.667,24.979h6.09c0-0.9-0.06-1.669-0.18-2.31
		c-0.12-0.64-0.295-1.165-0.525-1.575c-0.23-0.41-0.525-0.71-0.885-0.9c-0.36-0.189-0.79-0.285-1.29-0.285
		c-0.76,0-1.37,0.2-1.83,0.6c-0.46,0.4-0.8,0.98-1.02,1.74C217.807,23.009,217.688,23.919,217.667,24.979z"/>
	<path fill="#1A0A45" d="M229.007,34.039v-15.78h1.92l0.18,2.28h0.18c0.18-0.56,0.405-1.035,0.675-1.425
		c0.27-0.39,0.585-0.69,0.945-0.9c0.36-0.21,0.78-0.315,1.26-0.315c0.18,0,0.35,0.01,0.51,0.03s0.29,0.06,0.39,0.12v2.46h-0.87
		c-0.42,0-0.805,0.09-1.155,0.27c-0.35,0.18-0.65,0.445-0.9,0.795c-0.25,0.35-0.44,0.8-0.57,1.35
		c-0.13,0.551-0.195,1.195-0.195,1.935v9.18H229.007z"/>
	<path fill="#1A0A45" d="M239.687,34.399c-0.72,0-1.265-0.15-1.635-0.45c-0.37-0.3-0.62-0.71-0.75-1.23
		c-0.13-0.52-0.195-1.1-0.195-1.74v-10.71h-1.44v-2.01h1.47l0.42-4.47h1.92v4.47h2.16v2.01h-2.16v10.71
		c0,0.48,0.065,0.83,0.195,1.05c0.13,0.22,0.375,0.33,0.735,0.33h1.23v1.59c-0.2,0.08-0.416,0.154-0.645,0.225
		c-0.23,0.07-0.455,0.125-0.675,0.165C240.097,34.379,239.887,34.399,239.687,34.399z"/>
</g>
<g>
	<path fill="#1A0A45" d="M14.088,95.979l3.945-1.102V56.21l-3.945-1.102v-1.625h11.893c7.6,0,11.864,1.103,15.287,4.177
		c4.293,3.829,6.846,10.297,6.846,17.955c0,7.89-2.756,14.823-7.165,18.651c-2.842,2.437-5.946,3.394-10.761,3.394H14.088V95.979z
		 M37.613,90.787c2.292-3.481,3.48-8.876,3.48-15.577c0-6.701-1.189-11.632-3.539-14.91c-2.118-2.93-4.96-4.177-9.572-4.177h-3.829
		v35.534c0,2.523,1.218,3.452,4.699,3.452C32.972,95.108,35.612,93.832,37.613,90.787z"/>
	<path fill="#1A0A45" d="M51.004,82.926c0-9.66,5.221-16.273,12.908-16.273c6.439,0,9.862,4.612,10.037,13.401l-0.319,0.377H56.922
		c-0.029,0.203-0.029,0.406-0.029,0.609c0,8.151,2.552,12.299,7.629,12.299c3.277,0,6.033-1.595,7.832-4.525l0.986,0.899
		c-1.653,5.424-5.541,8.557-10.617,8.557C55.675,98.271,51.004,92.063,51.004,82.926z M57.009,78.342l10.878-0.493
		c0.087-0.406,0.145-1.334,0.145-2.263c0-4.409-1.566-6.672-4.641-6.672C59.735,68.915,57.502,72.309,57.009,78.342z"/>
	<path fill="#1A0A45" d="M76.988,96.994l-0.319-9.312h1.479c0.377,5.482,2.292,8.354,5.656,8.354c2.582,0,4.264-1.915,4.264-4.786
		c0-2.35-1.016-3.887-3.887-5.743l-2.03-1.276c-3.858-2.437-5.454-5.018-5.454-8.963c0-5.569,3.249-8.615,9.195-8.615
		c2.233,0,4.496,0.406,5.714,1.015v7.948h-1.305c-0.435-4.438-2.146-6.758-5.076-6.758c-2.263,0-3.771,1.624-3.771,4.148
		c0,2.205,1.073,3.625,4.032,5.395l2.118,1.334c3.597,2.233,5.134,4.815,5.134,8.963c0,5.917-3.423,9.573-9.108,9.573
		C81.542,98.271,78.787,97.748,76.988,96.994z"/>
	<path fill="#1A0A45" d="M94.677,96.124l3.655-0.957V72.019l-3.625-1.566v-1.044l8.499-2.755h0.667v28.514l3.539,0.957v1.538H94.677
		V96.124z M97.665,57.081c0-2.321,1.305-4.206,3.365-4.206c2.146,0,3.452,1.885,3.452,4.206c0,2.117-1.248,4.09-3.452,4.09
		C98.941,61.17,97.665,59.198,97.665,57.081z"/>
	<path fill="#1A0A45" d="M114.312,90.67c0,1.421,1.218,2.176,5.772,3.046l3.336,0.725c5.396,1.102,7.919,3.597,7.919,7.89
		c0,7.368-7.223,10.355-14.01,10.355c-5.047,0-10.327-2.088-10.327-7.483c0-2.959,1.508-5.279,5.598-7.455
		c-2.03-1.189-2.987-2.813-2.987-4.844c0-2.175,1.276-4.641,5.54-5.743c-3.336-1.538-5.598-5.047-5.598-9.833
		c0-6.149,4.148-10.674,9.659-10.674c1.973,0,3.829,0.58,5.366,1.624c0.87-2.842,2.408-6.12,5.019-6.12c1.595,0,2.9,1.189,2.9,3.075
		c0,1.625-0.928,2.988-2.292,2.988c-1.421,0-1.479-1.508-2.611-1.508c-0.841,0-1.421,1.189-1.711,2.61
		c1.943,1.856,3.162,4.612,3.162,7.861c0,5.627-3.916,10.849-9.862,10.849C115.82,88.031,114.312,88.959,114.312,90.67z
		 M118.402,110.366c4.148,0,8.673-1.653,8.673-5.511c0-2.089-1.247-3.51-7.078-4.873l-3.829-0.899
		c-0.667-0.145-1.247-0.348-1.827-0.551c-1.77,1.305-2.785,3.568-2.785,5.889C111.556,108.51,114.747,110.366,118.402,110.366z
		 M123.304,77.037c0-3.22-0.638-8.325-3.887-8.325c-3.365,0-4.09,5.569-4.09,8.963c0,3.249,0.667,8.209,3.858,8.209
		C122.405,85.884,123.304,80.924,123.304,77.037z"/>
	<path fill="#1A0A45" d="M132.028,96.124l3.481-0.957V72.077l-3.481-1.625v-0.986l8.093-2.813h0.667v4.641
		c2.437-2.901,5.453-4.641,8.615-4.641c4.554,0,6.875,2.9,6.875,8.557v19.985l3.423,0.928v1.538h-12.299v-1.538l3.336-0.928V77.53
		c0-4.612-1.45-6.875-4.67-6.875c-1.944,0-3.684,1.044-5.047,3.017v21.494l3.365,0.957v1.538h-12.357V96.124z"/>
	<path fill="#1A0A45" d="M161.144,82.926c0-9.66,5.221-16.273,12.908-16.273c6.439,0,9.862,4.612,10.037,13.401l-0.319,0.377
		h-16.708c-0.029,0.203-0.029,0.406-0.029,0.609c0,8.151,2.552,12.299,7.629,12.299c3.277,0,6.033-1.595,7.832-4.525l0.986,0.899
		c-1.653,5.424-5.541,8.557-10.617,8.557C165.814,98.271,161.144,92.063,161.144,82.926z M167.148,78.342l10.878-0.493
		c0.087-0.406,0.145-1.334,0.145-2.263c0-4.409-1.566-6.672-4.641-6.672C169.875,68.915,167.642,72.309,167.148,78.342z"/>
	<path fill="#1A0A45" d="M185.707,96.124l3.452-0.957V72.019l-3.423-1.595v-1.016l8.093-2.785h0.667v5.802
		c2.262-3.742,4.496-5.831,6.526-5.831c1.885,0,3.336,1.711,3.336,3.887c0,2.06-1.189,3.597-2.727,3.597
		c-0.726,0-1.421-0.348-1.944-1.073c-0.725-0.899-1.16-1.218-1.798-1.218c-0.841,0-2.175,1.276-3.22,3.162v20.218l5.221,0.957v1.538
		h-14.184V96.124z"/>
	<path fill="#1A0A45" d="M208.847,103.579c0-4.467,3.684-7.716,8.441-7.745c-1.334-1.276-2.088-3.017-2.088-4.844
		c0-3.597,2.727-5.772,7.078-5.917l0.087-0.232c-2.437-1.972-3.655-4.467-3.655-7.483c0-5.657,4.757-10.82,10.936-10.82
		c1.798,0,3.365,0.522,4.67,1.45c2.031-3.277,4.38-4.525,6.411-4.525c1.828,0,3.046,1.421,3.046,3.22c0,1.479-0.986,2.64-2.292,2.64
		c-1.711,0-1.886-2.03-3.22-2.03c-0.986,0-1.77,0.551-2.669,1.856c1.451,1.682,2.321,4.119,2.321,7.078
		c0,6.294-4.554,10.762-10.704,10.762c-1.16,0-2.466-0.146-3.452-0.174c-2.756-0.029-4.148,0.841-4.148,2.553
		c0,1.305,0.725,2.292,2.785,3.162l6.643,2.785c3.277,1.421,5.279,4.09,5.279,7.426c0,5.511-5.453,9.514-13.227,9.514
		C213.923,112.251,208.847,108.8,208.847,103.579z M229.558,104.71c0-1.944-1.566-3.684-3.945-4.728l-5.192-2.147
		c-0.783-0.319-1.218-0.493-1.653-0.493c-2.553,0-4.874,2.93-4.874,6.236c0,4.119,3.278,6.643,7.861,6.643
		C226.28,110.221,229.558,107.785,229.558,104.71z M232.806,72.773c0-2.697-0.696-4.003-2.378-4.003
		c-3.133,0-6.729,5.947-6.729,11.458c0,2.958,0.957,4.641,2.698,4.641C229.674,84.869,232.806,78.778,232.806,72.773z"/>
	<path fill="#1A0A45" d="M248.375,71.758c0.261-0.725,0.464-1.363,0.464-1.798s-0.232-0.609-0.58-0.609
		c-1.103,0-3.481,2.118-5.221,4.757l-1.044-1.015c2.64-3.916,6.149-6.439,9.137-6.439c1.682,0,2.64,1.015,2.64,3.045
		c0,1.566-0.464,3.22-2.088,6.382l0.232,0.087c3.336-6.439,6.149-9.514,9.369-9.514c2.146,0,3.742,1.421,3.742,3.568
		c0,1.798-0.986,2.9-2.378,2.9c-2.03,0-2.06-2.407-3.713-2.407c-2.582,0-6.178,6.555-10.152,16.534l-4.177,10.414h-5.453
		L248.375,71.758z"/>
	<path fill="#1A0A45" d="M258.757,90.467c0-10.384,9.833-23.814,17.694-23.814c2.001,0,3.249,0.783,4.438,2.697l0.783-2.117h5.598
		l-8.528,24.946c-0.696,1.973-0.493,2.727,0.319,2.727c0.957,0,2.437-1.392,5.482-5.279l1.073,0.871
		c-3.597,5.279-6.614,7.774-9.485,7.774c-2.03,0-3.133-1.161-3.133-3.452c0-1.653,0.377-3.365,1.683-6.004l-0.319-0.174
		c-3.8,6.816-6.759,9.63-10.007,9.63C260.874,98.271,258.757,95.34,258.757,90.467z M278.481,76.283
		c0.899-2.524,1.044-3.626,1.044-4.67c0-1.798-0.899-2.813-2.204-2.813c-4.67,0-13.314,15.664-13.314,23.989
		c0,2.146,0.493,3.19,1.653,3.19C268.59,95.979,274.769,86.609,278.481,76.283z"/>
	<path fill="#1A0A45" d="M276.067,110.917l4.235-0.899l14.503-40.813c-2.088,0.464-3.713,1.189-4.873,2.031l-0.464-1.421
		c1.711-1.305,3.829-2.233,6.004-2.698l1.711-4.989l5.714-0.725l-1.798,5.279c6.527,0.783,10.414,5.279,10.414,11.4
		c0,10.442-9.485,19.376-18.768,19.376c-0.696,0-1.566-0.058-2.35-0.145l-4.409,12.589l5.192,0.871l-0.174,1.247h-15.113
		L276.067,110.917z M305.944,76.602c0-4.815-2.03-7.774-4.728-7.774c-0.638,0-0.958,0.203-1.161,0.812l-9.021,25.787
		c0.522,0.029,0.783,0.029,1.189,0.029C298.78,95.457,305.944,86,305.944,76.602z"/>
	<path fill="#1A0A45" d="M324.213,94.731c0-1.653,0.58-3.8,1.711-6.498l6.294-15.171c0.435-1.073,0.667-2.03,0.667-2.755
		c0-0.928-0.406-1.421-1.189-1.421c-2.872,0-8.934,8.354-12.473,17.375l-4.438,11.4h-5.367l15.809-45.338l-3.8-0.754l-0.116-0.957
		h10.152l-9.253,25.468l0.261,0.087c4.09-6.759,7.223-9.456,10.849-9.456c2.756,0,4.525,1.74,4.525,4.873
		c0,1.566-0.348,3.365-1.189,5.395L330.74,91.25c-0.522,1.334-0.841,2.233-0.841,2.843c0,0.551,0.261,0.812,0.696,0.812
		c1.044,0,2.988-1.885,5.627-5.308l1.131,0.899c-3.481,5.163-6.701,7.774-9.95,7.774C325.142,98.271,324.213,97.081,324.213,94.731z
		"/>
	<path fill="#1A0A45" d="M338.796,94.76c0-0.986,0.203-2.407,0.783-3.916l7.716-19.87c0.203-0.522,0.232-0.841,0.232-1.073
		c0-0.377-0.203-0.551-0.609-0.551c-1.131,0-2.843,1.393-4.322,3.568l-1.16-1.073c2.35-3.277,5.396-5.192,8.151-5.192
		c2.176,0,3.597,1.189,3.597,3.22c0,1.044-0.232,2.523-0.783,3.974l-7.658,19.29c-0.145,0.348-0.174,0.58-0.174,0.783
		c0,0.58,0.319,0.986,0.87,0.986c0.958,0,2.088-1.044,5.25-4.844l1.131,0.812c-3.277,4.757-6.729,7.397-9.514,7.397
		C340.16,98.271,338.796,97.052,338.796,94.76z M349.79,56.936c0-2.234,1.798-4.177,3.742-4.177c1.799,0,3.365,1.479,3.365,3.394
		c0,2.175-1.915,4.293-3.887,4.293S349.79,59.053,349.79,56.936z"/>
	<path fill="#1A0A45" d="M356.254,110.917l5.541-1.073l7.542-21.03l-0.174-0.174c-4.148,6.933-7.02,9.63-10.414,9.63
		c-3.336,0-5.25-2.582-5.25-7.31c0-10.587,10.21-24.308,18.274-24.308c2.059,0,3.277,0.754,4.322,2.64l0.783-2.06h5.627
		l-15.142,42.785l4.032,0.754l-0.174,1.247h-15.171L356.254,110.917z M373.601,76.283c0.986-2.553,1.218-3.626,1.218-4.67
		c0-1.798-0.812-2.813-2.118-2.813c-4.757,0-13.981,16.07-13.981,24.221c0,2.001,0.464,2.958,1.479,2.958
		C363.129,95.979,369.743,86.232,373.601,76.283z"/>
	<path fill="#1A0A45" d="M394.914,94.848c0-1.451,0.493-3.278,1.596-5.976l-0.261-0.145c-4.206,6.991-6.962,9.485-10.587,9.485
		c-2.93,0-4.438-1.856-4.438-5.25c0-1.595,0.406-3.278,1.131-5.047l6.121-14.735c0.522-1.189,0.754-2.088,0.754-2.668
		c0-0.435-0.174-0.609-0.522-0.609c-0.957,0-2.93,1.653-4.67,3.887l-1.16-1.016c2.872-3.974,5.888-6.12,8.818-6.12
		c1.973,0,3.133,1.102,3.133,3.307c0,1.683-0.58,4.003-1.682,6.701l-6.15,15.2c-0.435,1.044-0.638,2.03-0.638,2.727
		c0,0.899,0.522,1.421,1.189,1.421c2.901,0,8.76-8.818,12.328-18.333l3.945-10.442h5.656l-9.224,25.41
		c-0.319,0.87-0.522,1.624-0.522,2.088c0,0.464,0.319,0.696,0.638,0.696c1.102,0,2.987-1.828,5.366-5.105l1.102,0.928
		c-3.075,4.467-6.178,7.02-8.847,7.02C396.161,98.271,394.914,96.936,394.914,94.848z"/>
	<path fill="#1A0A45" d="M406.974,90.032c0-10.877,10.181-23.379,19.145-23.379c3.249,0,5.221,1.624,5.221,4.351
		c0,4.844-6.381,9.282-16.505,11.399c-1.683,3.771-2.523,7.107-2.523,9.66c0,2.64,0.928,3.916,2.755,3.916
		c2.901,0,6.584-2.813,9.747-7.483l1.102,0.899c-4.003,5.917-8.064,8.876-12.241,8.876
		C409.498,98.271,406.974,95.138,406.974,90.032z M426.844,70.424c0-1.131-0.464-1.683-1.45-1.683c-2.524,0-5.889,3.829-8.325,8.992
		l-1.218,2.668C421.564,79.01,426.844,74.282,426.844,70.424z"/>
</g>
</svg>
